<svg xmlns="http://www.w3.org/2000/svg" width="420.199" height="72" viewBox="0 0 420.199 72">
    <g id="Group_30399" data-name="Group 30399" transform="translate(-342.783 -73.512)">
        <path id="Path_10415" data-name="Path 10415"
              d="M8.433,58.671c0,10.1,5.711,20.4,27.025,20.4v-.612c-6.935-.816-9.688-9.688-9.688-19.479V14.513c0-2.754,1.53-5.2,7.649-5.2V8.7H.784v.612c6.119,0,7.649,2.448,7.649,5.2ZM61.974,22.06c0-6.425,3.467-12.748,10.2-12.748V8.7H49.736v.612c6.731,0,10.2,6.221,10.2,12.748V58.977c0,9.79-6.221,19.173-19.377,19.479v.612c15.4,0,21.416-10.3,21.416-20.4Zm48.238,57.008h1.122l9.28-20.8L101.339,17.674c-2.55-5.3,1.632-8.363,6.323-8.363V8.7H70.846v.612c5,0,7.343,1.326,9.178,5.3ZM124.8,49.8l13.87-29.371c3.263-6.935,6.119-11.32,10.81-11.32V8.7H120.1v.612c5.405,0,11.626,3.671,11.626,11.116,0,6.425-1.326,14.788-7.241,28.453Zm82.4,22.334L177.011,7.68h-1.02l-9.382,20.8,19.275,40.589c2.55,5.3-1.632,8.363-6.323,8.363v.612h36.816v-.612C211.379,77.436,209.033,76.111,207.2,72.133ZM173.645,57.652l-.306-.612-18.051-.612a165.828,165.828,0,0,1,7.547-18.561l-.306-.918L148.557,66.32c-3.263,6.935-7.139,11.32-11.83,11.32v.408H166.1v-.612c-5.405,0-12.748-3.671-12.748-11.116a27.378,27.378,0,0,1,1.428-8.057Z"
              transform="translate(342 66.444)" fill="current" />
        <path id="Path_10416" data-name="Path 10416"
              d="M36.59,79.512h1.02l3.467-7.955L16.805,15.875c-2.04-4.385,1.02-6.221,5.813-6.221v-.51H-.532v.51c4.589,0,6.833,1.326,8.669,5.405Zm8.873-17.643,20.193-46.3c1.836-4.079,3.569-6.017,8.363-6.017V9.144H52.805v.51c4.691,0,8.363,1.734,8.363,5.813,0,5.2-4.793,17.031-15.909,45.892ZM86.561,17.4c3.365,0,5.711-1.938,5.711-5,0-2.958-2.346-4.9-5.711-4.9-3.467,0-5.813,1.938-5.813,4.9C80.748,15.467,83.094,17.4,86.561,17.4ZM77.383,30.458c4.181,0,6.017,1.122,6.017,3.875V74.107c0,2.55-1.53,3.977-6.017,3.977v.408H96.352v-.408c-4.589,0-6.119-1.428-6.119-3.977V26.481a22.642,22.642,0,0,1-12.85,3.569ZM105.02,78.492h18.969v-.408c-4.589,0-6.119-1.428-6.119-3.977V26.481a22.625,22.625,0,0,1-12.85,3.671v.408c4.181,0,6.017,1.02,6.017,3.875V74.107c0,2.55-1.53,3.977-6.017,3.977Zm38.244,0h18.969v-.408c-4.589,0-6.119-1.428-6.119-3.977V43.92c0-13.462-7.649-17.439-16.725-17.439a24.607,24.607,0,0,0-18.459,8.567v.408c4.487-4.283,9.28-6.425,15.2-6.425,6.527,0,13.156,2.856,13.156,15.093V74.107c0,2.55-1.53,3.977-6.017,3.977Zm52.011-52.011c-11.626.306-24.476,9.28-24.476,26.414,0,17.337,12.952,26.108,24.476,26.618V79.1c-7.547-.612-17.337-8.261-17.337-26.21,0-18.051,9.178-25.19,17.337-26.006Zm4.385,0v.408C207.819,27.7,217,34.843,217,52.894c0,17.949-9.79,25.6-17.337,26.21v.408c11.524-.51,24.476-9.382,24.476-26.618S211.287,26.787,199.661,26.481Z"
              transform="translate(538.847 66)" fill="current" />
    </g>
</svg>